<svg xmlns="http://www.w3.org/2000/svg" xmlns:xlink="http://www.w3.org/1999/xlink" id="Layer_1" x="0" y="0" version="1.1" viewBox="0 0 1007 400" style="enable-background:new 0 0 1007 400" xml:space="preserve"><style type="text/css">.st0{fill:#041e2b}</style><g><path d="M377.2,222.2l70.6-137h63.5L334.8,400h-63.5l69.2-117.1L288.4,85.3h57.2" class="st0"/><path d="M668,138.8h-60.8l-34,182.5h-61.6l34-182.5h-35.4l9.8-53.6h35.4c0.3-1.4,0.6-3.5,1.1-6.2 c0.4-2.7,0.8-4.8,1.1-6.2c5.1-26.4,16.5-45,34.2-55.9c17.7-10.9,31.9-16.4,60.5-16.4h10.6l-9.8,53.2c-12.5,0-21.3,2.1-26.4,6.2 s-8.4,12.5-9.8,25.3h60.8" class="st0"/><polyline points="709.9 0 771.4 0 711.5 321.3 649.9 321.3" class="st0"/><path d="M977.5,98.7c-19.6-18.4-45.2-27.6-77-27.6c-36.3,0-68.8,12-97.6,35.9c-28.8,24-46.3,53.8-52.5,89.5 c-1.7,7.6-2.5,15.5-2.5,23.4c0,31.2,9.8,56,29.3,74.4c19.6,18.4,45.2,27.6,77,27.6c36.3,0,68.8-12,97.6-35.9 c28.8-24,46.4-53.8,53-89.5c1.4-8.5,2.1-16.3,2.1-23.4C1006.8,141.9,997,117.1,977.5,98.7z M921.9,242.2 c-16.7,17.7-36,26.6-58.1,26.6c-16.5,0-30.1-5.5-40.8-16.5c-10.7-11-16-24.8-16-41.3c0-22.4,8.3-42.4,25-60.1 c16.7-17.7,36-26.6,58.1-26.6c16.5,0,30.1,5.5,40.8,16.5c10.7,11,16,24.8,16,41.3C946.9,204.4,938.6,224.5,921.9,242.2z" class="st0"/><polygon points="43.9 85.1 277.6 85.1 72.9 290.8 209.4 290.8 212.4 274.8 114.3 274.8 270.9 121.3 262.5 166.9 184.7 242.5 248.4 242.5 233.8 321.2 .2 321.2 207.3 115.6 68.7 115.6 65.8 131.6 167.3 131.6 6.3 288.5 15.9 236.4 92 163.8 29.4 163.8" class="st0"/></g></svg>