<svg xmlns="http://www.w3.org/2000/svg" xmlns:xlink="http://www.w3.org/1999/xlink" id="Layer_1" x="0" y="0" version="1.1" viewBox="0 0 982 400" style="enable-background:new 0 0 982 400" xml:space="preserve"><style type="text/css">.st0{fill:#1131ff}</style><g><path d="M358.9,222.2l45.2-137h63.5L349.5,400H286l41.5-110.1L244.8,85.3H302" class="st0"/><path d="M634.3,138.8h-60.8l-0.2,182.5h-61.6l0.2-182.5h-35.4l-0.1-53.6h35.4c0-1.4,0-3.5,0-6.2 c-0.1-2.7-0.1-4.8,0-6.2c0.2-26.4,8.2-45,23.8-55.9C551.2,6,564.3,0.5,592.9,0.5h10.6l0.1,53.2c-12.5,0-20.9,2.1-25.3,6.2 s-6.1,12.5-5.1,25.3H634" class="st0"/><polyline points="650.5 0 712 0 711.6 321.3 650 321.3" class="st0"/><path d="M936.3,98.7c-23-18.4-50.3-27.6-82.1-27.6c-36.3,0-66.6,12-90.9,35.9c-24.4,24-36.3,53.8-35.9,89.5 c-0.3,7.6,0.4,15.5,1.8,23.4c5.8,31.2,20.2,56,43.1,74.4c23,18.4,50.3,27.6,82.1,27.6c36.3,0,66.6-12,90.9-35.9 c24.4-24,36.4-53.8,36.4-89.5c-0.2-8.5-0.9-16.3-2.2-23.4C973.7,141.9,959.3,117.1,936.3,98.7z M907.3,242.2 c-13.4,17.7-31.1,26.6-53.2,26.6c-16.5,0-31.1-5.5-43.9-16.5c-12.7-11-20.6-24.8-23.7-41.3c-4.2-22.4,0.4-42.4,13.9-60.1 s31.1-26.6,53.2-26.6c16.5,0,31.1,5.5,43.9,16.5c12.7,11,20.6,24.8,23.7,41.3C925.3,204.4,920.8,224.5,907.3,242.2z" class="st0"/><polygon points=".2 85.1 233.9 85.1 67.4 290.8 203.9 290.8 203.9 274.8 105.8 274.8 233.9 121.3 234 166.9 170.2 242.5 233.9 242.5 233.9 321.2 .3 321.2 169.3 115.6 30.7 115.6 30.7 131.6 132.2 131.6 .3 288.5 .3 236.4 62.9 163.8 .3 163.8" class="st0"/></g></svg>